# xmcd CD database file
#
# Track frame offsets:
#	150
#	15367
#	27572
#	36277
#	51610
#	59200
#	70270
#	89135
#	101010
#	112347
#	152735
#	162052
#	183097
#	194140
#	220550
#	258080
#
# Disc length: 3726 seconds
#
# Revision: 3
# Processed by: cddbd v1.5.2PL0 Copyright (c) Steve Scherf et al.
# Submitted via: CDex 1.51
#
DISCID=ed0e8c10
DTITLE=Betty Carter - Vol. 184 -  Betty Carter 1955-1969
DYEAR=1972
DGENRE=Jazz
TTITLE0=You and I (feat. Ray Charles)
TTITLE1=The Way You Look Tonight
TTITLE2=Just You, Just Me (feat. Ray Charles)
TTITLE3=Moonlight in Vermont
TTITLE4=Thou Swell
TTITLE5=Can't We Be Friends?
TTITLE6=Gone With the Wind
TTITLE7=Social Call
TTITLE8=Frenesi
TTITLE9=Body and Soul/Heart and Soul
TTITLE10=Blue Moon
TTITLE11=You're a Sweetheart
TTITLE12=I Only Have Eyes for You
TTITLE13=I Didn't Know What Time It Was/All the Things You Are/I Could Write a Book
TTITLE14=Seems Like Old Times/I Remember You/ (You Forgot to) Remember [Live]
TTITLE15=Alone Together (feat. Ray Charles)
EXTD=YEAR: 1972
EXTT0=
EXTT1=
EXTT2=
EXTT3=
EXTT4=
EXTT5=
EXTT6=
EXTT7=
EXTT8=
EXTT9=
EXTT10=
EXTT11=
EXTT12=
EXTT13=
EXTT14=
EXTT15=
PLAYORDER=
